<svg width="42" height="42" viewBox="0 0 42 42" fill="none" xmlns="http://www.w3.org/2000/svg">
<g filter="url(#filter0_d_366_878)">
<ellipse cx="21" cy="17" rx="17" ry="17" transform="rotate(-180 21 17)" fill="#D9D9D9"/>
</g>
<path d="M21.4911 16.9972C21.5575 17.063 21.6102 17.1414 21.6462 17.2277C21.6821 17.314 21.7006 17.4066 21.7006 17.5001C21.7006 17.5936 21.6821 17.6862 21.6462 17.7725C21.6102 17.8588 21.5575 17.9372 21.4911 18.003L18.2399 21.2472C18.1735 21.313 18.1208 21.3914 18.0848 21.4777C18.0489 21.564 18.0303 21.6566 18.0303 21.7501C18.0303 21.8436 18.0489 21.9362 18.0848 22.0225C18.1208 22.1088 18.1735 22.1872 18.2399 22.253C18.3726 22.3849 18.5521 22.459 18.7392 22.459C18.9264 22.459 19.1059 22.3849 19.2386 22.253L22.4899 19.0018C22.8878 18.6033 23.1113 18.0632 23.1113 17.5001C23.1113 16.937 22.8878 16.3969 22.4899 15.9984L19.2386 12.7472C19.1067 12.6163 18.9286 12.5425 18.7428 12.5418C18.6496 12.5412 18.5571 12.5591 18.4708 12.5943C18.3845 12.6296 18.3061 12.6815 18.2399 12.7472C18.1735 12.813 18.1208 12.8914 18.0848 12.9777C18.0489 13.064 18.0303 13.1566 18.0303 13.2501C18.0303 13.3436 18.0489 13.4362 18.0848 13.5225C18.1208 13.6088 18.1735 13.6872 18.2399 13.753L21.4911 16.9972Z" fill="#2A2A2A"/>
<defs>
<filter id="filter0_d_366_878" x="0" y="0" width="42" height="42" filterUnits="userSpaceOnUse" color-interpolation-filters="sRGB">
<feFlood flood-opacity="0" result="BackgroundImageFix"/>
<feColorMatrix in="SourceAlpha" type="matrix" values="0 0 0 0 0 0 0 0 0 0 0 0 0 0 0 0 0 0 127 0" result="hardAlpha"/>
<feOffset dy="4"/>
<feGaussianBlur stdDeviation="2"/>
<feComposite in2="hardAlpha" operator="out"/>
<feColorMatrix type="matrix" values="0 0 0 0 0 0 0 0 0 0 0 0 0 0 0 0 0 0 0.25 0"/>
<feBlend mode="normal" in2="BackgroundImageFix" result="effect1_dropShadow_366_878"/>
<feBlend mode="normal" in="SourceGraphic" in2="effect1_dropShadow_366_878" result="shape"/>
</filter>
</defs>
</svg>
